<svg width="47" height="47" viewBox="0 0 47 47" fill="none" xmlns="http://www.w3.org/2000/svg">
<path d="M37.2083 7.83317H31.3333V3.9165H27.4167V7.83317H19.5833V3.9165H15.6667V7.83317H9.79167C7.63162 7.83317 5.875 9.5898 5.875 11.7498V39.1665C5.875 41.3265 7.63162 43.0832 9.79167 43.0832H37.2083C39.3684 43.0832 41.125 41.3265 41.125 39.1665V11.7498C41.125 9.5898 39.3684 7.83317 37.2083 7.83317ZM9.79167 39.1665V13.7082H37.2083V11.7498L37.2123 39.1665H9.79167Z" fill="black"/>
<path d="M30.6051 23.8583L27.0801 20.3353L29.763 17.6504L33.288 21.1734L30.6051 23.8583Z" fill="black"/>
<path d="M15.6763 31.7271V35.2501H19.1993L28.944 25.5172L25.4209 21.9941L15.6763 31.7271Z" fill="black"/>
</svg>
