<svg width="35" height="35" viewBox="0 0 35 35" fill="none" xmlns="http://www.w3.org/2000/svg">
<path d="M14.1676 17.4998C15.8462 17.4998 17.0843 16.2617 17.0843 14.5832C17.0843 12.9046 15.8462 11.6665 14.1676 11.6665C12.4891 11.6665 11.251 12.9046 11.251 14.5832C11.251 16.2617 12.4876 17.4998 14.1676 17.4998Z" fill="#454545"/>
<path d="M29.1665 5.8335H5.83317C4.22463 5.8335 2.9165 7.05995 2.9165 8.56787V26.4325C2.9165 27.9404 4.22463 29.1668 5.83317 29.1668H29.1665C30.775 29.1668 32.0832 27.9404 32.0832 26.4325V8.56787C32.0832 7.05995 30.775 5.8335 29.1665 5.8335ZM29.1665 26.2502L5.83317 26.2341V8.75016L29.1665 8.7662V26.2502Z" fill="#454545"/>
<path d="M20.4167 13.125H26.25V16.0417H20.4167V13.125ZM21.875 18.9583H26.25V21.875H21.875V18.9583ZM19.5854 22.6567C19.5854 20.6529 17.1413 18.5938 14.1677 18.5938C11.1942 18.5938 8.75 20.6529 8.75 22.6567V23.3333H19.5854V22.6567Z" fill="#454545"/>
</svg>
