<svg width="33" height="33" viewBox="0 0 33 33" fill="none" xmlns="http://www.w3.org/2000/svg">
<path d="M30.8002 2.2H2.2002V0H30.8002V2.2Z" fill="#454545"/>
<path d="M2.22182 5.2843C2.27165 5.03503 2.40627 4.81071 2.60279 4.64948C2.79932 4.48825 3.04562 4.40006 3.29982 4.3999H29.6998C29.954 4.40006 30.2003 4.48825 30.3969 4.64948C30.5934 4.81071 30.728 5.03503 30.7778 5.2843L32.9778 16.2843C33.0097 16.4438 33.0058 16.6084 32.9664 16.7663C32.927 16.9241 32.8531 17.0713 32.75 17.1971C32.6469 17.3229 32.5172 17.4243 32.3702 17.494C32.2231 17.5636 32.0625 17.5998 31.8998 17.5999H1.09982C0.937144 17.5998 0.77651 17.5636 0.629497 17.494C0.482483 17.4243 0.35275 17.3229 0.249643 17.1971C0.146536 17.0713 0.0726224 16.9241 0.033228 16.7663C-0.00616649 16.6084 -0.0100613 16.4438 0.021824 16.2843L2.22182 5.2843Z" fill="#454545"/>
<path d="M2.2 19.7998V30.7998H0V32.9998H33V30.7998H30.8V19.7998H26.4V24.1998H6.6V19.7998H2.2Z" fill="#454545"/>
<path d="M8.7998 19.7998H24.1998V21.9998H8.7998V19.7998Z" fill="#454545"/>
</svg>
