<svg width="34" height="34" viewBox="0 0 34 34" fill="none" xmlns="http://www.w3.org/2000/svg">
<path d="M32.2998 24.6498V9.3498C32.2998 7.9388 31.1608 6.7998 29.7498 6.7998H5.93281C4.52181 6.7998 3.38281 7.9388 3.38281 9.3498V24.6498C3.38281 26.0608 4.52181 27.1998 5.93281 27.1998H29.7498C31.1608 27.1998 32.2998 26.0608 32.2998 24.6498ZM30.0728 9.1628C30.6338 9.7238 30.3278 10.3018 30.0218 10.5908L23.1198 16.9148L29.7498 23.8168C29.9538 24.0548 30.0898 24.4288 29.8518 24.6838C29.6308 24.9558 29.1208 24.9388 28.8998 24.7688L21.4708 18.4278L17.8328 21.7428L14.2118 18.4278L6.78281 24.7688C6.56181 24.9388 6.05181 24.9558 5.83081 24.6838C5.59281 24.4288 5.72881 24.0548 5.93281 23.8168L12.5628 16.9148L5.66081 10.5908C5.35481 10.3018 5.04881 9.7238 5.60981 9.1628C6.17081 8.6018 6.74881 8.87381 7.22481 9.28181L17.8328 17.8498L28.4578 9.28181C28.9338 8.87381 29.5118 8.6018 30.0728 9.1628Z" fill="#454545"/>
</svg>
