<svg width="27" height="27" viewBox="0 0 27 27" fill="none" xmlns="http://www.w3.org/2000/svg">
<path d="M18.3301 18.48L20.5701 16.24C20.8718 15.9421 21.2535 15.7381 21.6689 15.6529C22.0843 15.5677 22.5155 15.6049 22.9101 15.76L25.6401 16.85C26.0389 17.0119 26.3809 17.2882 26.6229 17.6441C26.8649 18.0001 26.9962 18.4197 27.0001 18.85V23.85C26.9978 24.1428 26.9363 24.4321 26.8192 24.7005C26.7021 24.9688 26.532 25.2107 26.319 25.4116C26.1059 25.6125 25.8545 25.7682 25.5797 25.8693C25.3049 25.9704 25.0125 26.0149 24.7201 26C5.59013 24.81 1.73013 8.61004 1.00013 2.41004C0.966247 2.10558 0.997209 1.79739 1.09098 1.50575C1.18476 1.21411 1.33922 0.945633 1.5442 0.717977C1.74919 0.49032 2.00005 0.308646 2.28029 0.184905C2.56053 0.0611637 2.8638 -0.00183916 3.17013 4.0869e-05H8.00013C8.43114 0.00131666 8.85191 0.131508 9.20833 0.37387C9.56474 0.616232 9.8405 0.959681 10.0001 1.36004L11.0901 4.09004C11.2504 4.48311 11.2913 4.91468 11.2077 5.33085C11.1241 5.74702 10.9197 6.12934 10.6201 6.43004L8.38013 8.67004C8.38013 8.67004 9.67013 17.4 18.3301 18.48Z" fill="#454545"/>
</svg>
