<svg width="56" height="51" viewBox="0 0 56 51" fill="none" xmlns="http://www.w3.org/2000/svg">
<path d="M53.4244 37.1842C53.6519 35.7797 53.6519 34.3453 53.4244 32.9408L55.6821 31.4566C55.9446 31.2873 56.0584 30.9387 55.9709 30.61C55.3846 28.4584 54.3782 26.5061 53.0656 24.8924C52.8643 24.6434 52.5405 24.5836 52.278 24.7529L50.0203 26.2371C49.0664 25.3107 47.9726 24.5936 46.7912 24.1154V21.1471C46.7912 20.8084 46.5812 20.5096 46.2924 20.4398C44.3409 19.9418 42.3545 19.9617 40.4993 20.4398C40.2105 20.5096 40.0005 20.8084 40.0005 21.1471V24.1154C38.8191 24.5936 37.7252 25.3107 36.7714 26.2371L34.5136 24.7529C34.2599 24.5836 33.9273 24.6434 33.7261 24.8924C32.4134 26.5061 31.4071 28.4584 30.8208 30.61C30.7332 30.9387 30.8558 31.2873 31.1095 31.4566L33.3673 32.9408C33.1397 34.3453 33.1397 35.7797 33.3673 37.1842L31.1095 38.6684C30.847 38.8377 30.7332 39.1863 30.8208 39.515C31.4071 41.6666 32.4134 43.609 33.7261 45.2326C33.9273 45.4816 34.2511 45.5414 34.5136 45.3721L36.7714 43.8879C37.7252 44.8143 38.8191 45.5314 40.0005 46.0096V48.9779C40.0005 49.3166 40.2105 49.6154 40.4993 49.6852C42.4507 50.1832 44.4372 50.1633 46.2924 49.6852C46.5812 49.6154 46.7912 49.3166 46.7912 48.9779V46.0096C47.9726 45.5314 49.0664 44.8143 50.0203 43.8879L52.278 45.3721C52.5318 45.5414 52.8643 45.4816 53.0656 45.2326C54.3782 43.6189 55.3846 41.6666 55.9709 39.515C56.0584 39.1863 55.9359 38.8377 55.6821 38.6684L53.4244 37.1842ZM43.4046 39.8936C41.0593 39.8936 39.1604 37.7221 39.1604 35.0625C39.1604 32.4029 41.0681 30.2314 43.4046 30.2314C45.7411 30.2314 47.6488 32.4029 47.6488 35.0625C47.6488 37.7221 45.7498 39.8936 43.4046 39.8936ZM19.6021 25.5C25.789 25.5 30.8032 19.7924 30.8032 12.75C30.8032 5.70762 25.789 0 19.6021 0C13.4152 0 8.40089 5.70762 8.40089 12.75C8.40089 19.7924 13.4152 25.5 19.6021 25.5ZM37.2089 48.0615C37.0077 47.942 36.8064 47.8025 36.6139 47.673L35.9225 48.1313C35.3975 48.4699 34.8024 48.6592 34.2074 48.6592C33.2535 48.6592 32.3347 48.201 31.6783 47.4041C30.0769 45.4318 28.8518 43.0312 28.1605 40.4713C27.6792 38.7082 28.3267 36.8455 29.7269 35.9191L30.4182 35.4609C30.4095 35.202 30.4095 34.943 30.4182 34.684L29.7269 34.2258C28.3267 33.3094 27.6792 31.4367 28.1605 29.6736C28.2392 29.3848 28.353 29.0959 28.4405 28.807C28.108 28.7771 27.7842 28.6875 27.4429 28.6875H25.9815C24.0388 29.7035 21.8773 30.2812 19.6021 30.2812C17.3268 30.2812 15.1741 29.7035 13.2226 28.6875H11.7612C5.26806 28.6875 0 34.684 0 42.075V46.2188C0 48.8584 1.88145 51 4.20044 51H35.0037C35.8875 51 36.7101 50.6813 37.3839 50.1533C37.2789 49.7748 37.2089 49.3863 37.2089 48.9779V48.0615Z" fill="#454545"/>
</svg>
