<svg width="44" height="44" viewBox="0 0 44 44" fill="none" xmlns="http://www.w3.org/2000/svg">
<path d="M22 0.125C17.6735 0.125 13.4442 1.40795 9.84691 3.8116C6.24959 6.21526 3.44581 9.63167 1.79015 13.6288C0.134478 17.6259 -0.29872 22.0243 0.545332 26.2676C1.38938 30.5109 3.47278 34.4087 6.53205 37.468C9.59132 40.5272 13.4891 42.6106 17.7324 43.4547C21.9757 44.2987 26.3741 43.8655 30.3712 42.2099C34.3683 40.5542 37.7848 37.7504 40.1884 34.1531C42.5921 30.5558 43.875 26.3265 43.875 22C43.875 16.1984 41.5703 10.6344 37.468 6.53204C33.3656 2.42968 27.8016 0.125 22 0.125ZM22 7.9375C23.3907 7.9375 24.7501 8.34988 25.9064 9.12248C27.0626 9.89508 27.9639 10.9932 28.496 12.278C29.0282 13.5628 29.1675 14.9766 28.8962 16.3405C28.6249 17.7044 27.9552 18.9573 26.9719 19.9406C25.9885 20.9239 24.7357 21.5936 23.3717 21.8649C22.0078 22.1362 20.5941 21.997 19.3093 21.4648C18.0245 20.9326 16.9263 20.0314 16.1537 18.8751C15.3811 17.7188 14.9688 16.3594 14.9688 14.9688C14.9667 14.0448 15.1472 13.1296 15.4998 12.2756C15.8524 11.4216 16.3703 10.6456 17.0236 9.99231C17.6769 9.33899 18.4528 8.82115 19.3068 8.46853C20.1608 8.1159 21.0761 7.93544 22 7.9375ZM34.5 35.9375C31.0735 39.0349 26.619 40.7498 22 40.7498C17.381 40.7498 12.9265 39.0349 9.50001 35.9375V35.0313C9.44084 32.8919 10.2282 30.8155 11.691 29.2533C13.1537 27.691 15.1739 26.769 17.3125 26.6875H26.6875C28.8165 26.773 30.8271 27.6897 32.2877 29.2409C33.7484 30.7921 34.5426 32.8541 34.5 34.9844V35.9375Z" fill="#454545"/>
</svg>
