<svg width="53" height="48" viewBox="0 0 53 48" fill="none" xmlns="http://www.w3.org/2000/svg">
<path d="M26.25 7.875C26.7692 7.875 27.2767 8.02895 27.7084 8.31739C28.1401 8.60583 28.4765 9.0158 28.6752 9.49546C28.8739 9.97511 28.9258 10.5029 28.8246 11.0121C28.7233 11.5213 28.4733 11.989 28.1062 12.3562C27.739 12.7233 27.2713 12.9733 26.7621 13.0746C26.2529 13.1758 25.7251 13.1239 25.2455 12.9252C24.7658 12.7265 24.3558 12.3901 24.0674 11.9584C23.779 11.5267 23.625 11.0192 23.625 10.5C23.625 9.80381 23.9016 9.13613 24.3938 8.64385C24.8861 8.15156 25.5538 7.875 26.25 7.875ZM10.5 28.875H42V36.75H10.5V28.875ZM47.25 7.875H36.75V0H15.75V7.875H5.25C3.85761 7.875 2.52226 8.42812 1.53769 9.41269C0.553123 10.3973 0 11.7326 0 13.125V42C0 43.3924 0.553123 44.7277 1.53769 45.7123C2.52226 46.6969 3.85761 47.25 5.25 47.25H47.25C48.6424 47.25 49.9777 46.6969 50.9623 45.7123C51.9469 44.7277 52.5 43.3924 52.5 42V13.125C52.5 11.7326 51.9469 10.3973 50.9623 9.41269C49.9777 8.42812 48.6424 7.875 47.25 7.875ZM21 5.25H31.5V18.375H21V5.25ZM47.25 42H5.25V18.375H15.75C15.75 19.7674 16.3031 21.1027 17.2877 22.0873C18.2723 23.0719 19.6076 23.625 21 23.625H31.5C32.8924 23.625 34.2277 23.0719 35.2123 22.0873C36.1969 21.1027 36.75 19.7674 36.75 18.375H47.25V42Z" fill="#F4F4F4"/>
</svg>
