<svg width="81" height="74" viewBox="0 0 81 74" fill="none" xmlns="http://www.w3.org/2000/svg">
<path d="M77.2746 53.9535C77.6037 51.9156 77.6037 49.8344 77.2746 47.7965L80.5402 45.643C80.9199 45.3973 81.0845 44.8914 80.9579 44.4145C80.1098 41.2926 78.6542 38.4598 76.7556 36.1184C76.4645 35.757 75.9961 35.6703 75.6164 35.916L72.3508 38.0695C70.9711 36.7254 69.3889 35.6848 67.6801 34.991V30.684C67.6801 30.1926 67.3763 29.759 66.9586 29.6578C64.136 28.9352 61.2627 28.9641 58.5793 29.6578C58.1616 29.759 57.8578 30.1926 57.8578 30.684V34.991C56.149 35.6848 54.5668 36.7254 53.1872 38.0695L49.9215 35.916C49.5544 35.6703 49.0735 35.757 48.7823 36.1184C46.8837 38.4598 45.4281 41.2926 44.58 44.4145C44.4534 44.8914 44.6306 45.3973 44.9977 45.643L48.2634 47.7965C47.9343 49.8344 47.9343 51.9156 48.2634 53.9535L44.9977 56.107C44.618 56.3527 44.4534 56.8586 44.58 57.3356C45.4281 60.4574 46.8837 63.2758 48.7823 65.6316C49.0735 65.993 49.5418 66.0797 49.9215 65.834L53.1872 63.6805C54.5668 65.0246 56.149 66.0652 57.8578 66.759V71.066C57.8578 71.5574 58.1616 71.991 58.5793 72.0922C61.4019 72.8148 64.2752 72.7859 66.9586 72.0922C67.3763 71.991 67.6801 71.5574 67.6801 71.066V66.759C69.3889 66.0652 70.9711 65.0246 72.3508 63.6805L75.6164 65.834C75.9835 66.0797 76.4645 65.993 76.7556 65.6316C78.6542 63.2902 80.1098 60.4574 80.9579 57.3356C81.0845 56.8586 80.9073 56.3527 80.5402 56.107L77.2746 53.9535ZM62.7816 57.8848C59.3894 57.8848 56.6427 54.734 56.6427 50.875C56.6427 47.016 59.402 43.8652 62.7816 43.8652C66.1612 43.8652 68.9205 47.016 68.9205 50.875C68.9205 54.734 66.1739 57.8848 62.7816 57.8848ZM28.353 37C37.3019 37 44.5547 28.7184 44.5547 18.5C44.5547 8.28164 37.3019 0 28.353 0C19.4041 0 12.1513 8.28164 12.1513 18.5C12.1513 28.7184 19.4041 37 28.353 37ZM53.8201 69.7363C53.5289 69.5629 53.2378 69.3605 52.9593 69.1727L51.9594 69.8375C51.1999 70.3289 50.3392 70.6035 49.4785 70.6035C48.0988 70.6035 46.7698 69.9387 45.8205 68.7824C43.5041 65.9207 41.7321 62.4375 40.7321 58.723C40.0359 56.1648 40.9726 53.4621 42.9978 52.118L43.9978 51.4531C43.9851 51.0773 43.9851 50.7016 43.9978 50.3258L42.9978 49.6609C40.9726 48.3312 40.0359 45.6141 40.7321 43.0559C40.846 42.6367 41.0106 42.2176 41.1371 41.7984C40.6562 41.7551 40.1878 41.625 39.6942 41.625H37.5804C34.7704 43.0992 31.644 43.9375 28.353 43.9375C25.062 43.9375 21.9483 43.0992 19.1256 41.625H17.0118C7.61987 41.625 0 50.3258 0 61.05V67.0625C0 70.8926 2.72138 74 6.07564 74H50.6303C51.9088 74 53.0986 73.5375 54.0732 72.7715C53.9213 72.2223 53.8201 71.6586 53.8201 71.066V69.7363Z" fill="#F9F9F9"/>
</svg>
