<svg width="73" height="65" viewBox="0 0 73 65" fill="none" xmlns="http://www.w3.org/2000/svg">
<path d="M36.5 10.8333C37.2219 10.8333 37.9276 11.0451 38.5278 11.4419C39.1281 11.8387 39.5959 12.4027 39.8722 13.0625C40.1484 13.7224 40.2207 14.4485 40.0799 15.1489C39.939 15.8494 39.5914 16.4929 39.0809 16.9979C38.5705 17.5029 37.9201 17.8468 37.2121 17.9862C36.5041 18.1255 35.7702 18.054 35.1032 17.7807C34.4363 17.5074 33.8662 17.0445 33.4651 16.4507C33.0641 15.8568 32.85 15.1587 32.85 14.4444C32.85 13.4867 33.2346 12.5682 33.9191 11.891C34.6036 11.2138 35.532 10.8333 36.5 10.8333ZM14.6 39.7222H58.4V50.5556H14.6V39.7222ZM65.7 10.8333H51.1V0H21.9V10.8333H7.3C5.36392 10.8333 3.50714 11.5942 2.13812 12.9487C0.769105 14.3031 0 16.1401 0 18.0556V57.7778C0 59.6932 0.769105 61.5302 2.13812 62.8847C3.50714 64.2391 5.36392 65 7.3 65H65.7C67.6361 65 69.4929 64.2391 70.8619 62.8847C72.2309 61.5302 73 59.6932 73 57.7778V18.0556C73 16.1401 72.2309 14.3031 70.8619 12.9487C69.4929 11.5942 67.6361 10.8333 65.7 10.8333ZM29.2 7.22222H43.8V25.2778H29.2V7.22222ZM65.7 57.7778H7.3V25.2778H21.9C21.9 27.1932 22.6691 29.0302 24.0381 30.3847C25.4071 31.7391 27.2639 32.5 29.2 32.5H43.8C45.7361 32.5 47.5929 31.7391 48.9619 30.3847C50.3309 29.0302 51.1 27.1932 51.1 25.2778H65.7V57.7778Z" fill="#F9F9F9"/>
</svg>
