<svg width="39" height="39" viewBox="0 0 39 39" fill="none" xmlns="http://www.w3.org/2000/svg">
<path d="M19.5 9.75C19.8214 9.75 20.1356 9.8453 20.4028 10.0239C20.67 10.2024 20.8783 10.4562 21.0013 10.7531C21.1243 11.0501 21.1565 11.3768 21.0938 11.692C21.0311 12.0072 20.8763 12.2968 20.649 12.524C20.4218 12.7513 20.1322 12.9061 19.817 12.9688C19.5018 13.0315 19.1751 12.9993 18.8781 12.8763C18.5812 12.7533 18.3274 12.545 18.1489 12.2778C17.9703 12.0106 17.875 11.6964 17.875 11.375C17.875 10.944 18.0462 10.5307 18.351 10.226C18.6557 9.92121 19.069 9.75 19.5 9.75ZM9.75 22.75H29.25V27.625H9.75V22.75ZM32.5 9.75H26V4.875H13V9.75H6.5C5.63805 9.75 4.8114 10.0924 4.2019 10.7019C3.59241 11.3114 3.25 12.138 3.25 13V30.875C3.25 31.737 3.59241 32.5636 4.2019 33.1731C4.8114 33.7826 5.63805 34.125 6.5 34.125H32.5C33.362 34.125 34.1886 33.7826 34.7981 33.1731C35.4076 32.5636 35.75 31.737 35.75 30.875V13C35.75 12.138 35.4076 11.3114 34.7981 10.7019C34.1886 10.0924 33.362 9.75 32.5 9.75ZM16.25 8.125H22.75V16.25H16.25V8.125ZM32.5 30.875H6.5V16.25H13C13 17.112 13.3424 17.9386 13.9519 18.5481C14.5614 19.1576 15.388 19.5 16.25 19.5H22.75C23.612 19.5 24.4386 19.1576 25.0481 18.5481C25.6576 17.9386 26 17.112 26 16.25H32.5V30.875Z" fill="#454545"/>
</svg>
