<svg width="24" height="30" viewBox="0 0 24 30" fill="none" xmlns="http://www.w3.org/2000/svg">
<path d="M12 0C7.8645 0 4.5 3.3645 4.5 7.5V12H3C2.20435 12 1.44129 12.3161 0.87868 12.8787C0.31607 13.4413 0 14.2044 0 15V27C0 27.7956 0.31607 28.5587 0.87868 29.1213C1.44129 29.6839 2.20435 30 3 30H21C21.7956 30 22.5587 29.6839 23.1213 29.1213C23.6839 28.5587 24 27.7956 24 27V15C24 14.2044 23.6839 13.4413 23.1213 12.8787C22.5587 12.3161 21.7956 12 21 12H19.5V7.5C19.5 3.3645 16.1355 0 12 0ZM7.5 7.5C7.5 5.019 9.519 3 12 3C14.481 3 16.5 5.019 16.5 7.5V12H7.5V7.5ZM13.5 23.5845V27H10.5V23.5845C9.97558 23.2842 9.55449 22.832 9.29224 22.2875C9.03 21.7431 8.93893 21.1319 9.03103 20.5347C9.12313 19.9374 9.39407 19.3821 9.80815 18.9419C10.2222 18.5017 10.76 18.1974 11.3505 18.069C11.7891 17.972 12.2439 17.9747 12.6814 18.0769C13.1188 18.1791 13.5277 18.3782 13.878 18.6595C14.2282 18.9408 14.5109 19.2971 14.7051 19.7022C14.8993 20.1073 15 20.5508 15 21C14.9991 21.5246 14.86 22.0397 14.5967 22.4935C14.3334 22.9472 13.9551 23.3235 13.5 23.5845Z" fill="#454545"/>
</svg>
