<svg width="35" height="35" viewBox="0 0 35 35" fill="none" xmlns="http://www.w3.org/2000/svg">
<path d="M14.1677 17.5C15.8462 17.5 17.0844 16.2619 17.0844 14.5833C17.0844 12.9048 15.8462 11.6667 14.1677 11.6667C12.4892 11.6667 11.251 12.9048 11.251 14.5833C11.251 16.2619 12.4877 17.5 14.1677 17.5Z" fill="black"/>
<path d="M29.1667 5.83333H5.83332C4.22478 5.83333 2.91666 7.05979 2.91666 8.56771V26.4323C2.91666 27.9402 4.22478 29.1667 5.83332 29.1667H29.1667C30.7752 29.1667 32.0833 27.9402 32.0833 26.4323V8.56771C32.0833 7.05979 30.7752 5.83333 29.1667 5.83333ZM29.1667 26.25L5.83332 26.234V8.75L29.1667 8.76604V26.25Z" fill="black"/>
<path d="M20.4167 13.125H26.25V16.0417H20.4167V13.125ZM21.875 18.9583H26.25V21.875H21.875V18.9583ZM19.5854 22.6567C19.5854 20.6529 17.1413 18.5938 14.1677 18.5938C11.1942 18.5938 8.75 20.6529 8.75 22.6567V23.3333H19.5854V22.6567Z" fill="black"/>
</svg>
