<svg width="31" height="31" viewBox="0 0 31 31" fill="none" xmlns="http://www.w3.org/2000/svg">
<path d="M28.9333 2.06667H2.06665V0H28.9333V2.06667Z" fill="#454545"/>
<path d="M2.08726 4.96412C2.13406 4.72995 2.26052 4.51923 2.44514 4.36777C2.62975 4.21631 2.86113 4.13346 3.09993 4.13332H27.8999C28.1387 4.13346 28.3701 4.21631 28.5547 4.36777C28.7393 4.51923 28.8658 4.72995 28.9126 4.96412L30.9793 15.2974C31.0092 15.4473 31.0056 15.6019 30.9685 15.7502C30.9315 15.8985 30.8621 16.0367 30.7652 16.1549C30.6684 16.2731 30.5465 16.3684 30.4084 16.4338C30.2703 16.4992 30.1194 16.5332 29.9666 16.5333H1.03326C0.880438 16.5332 0.72954 16.4992 0.591436 16.4338C0.453332 16.3684 0.331461 16.2731 0.234603 16.1549C0.137745 16.0367 0.0683117 15.8985 0.0313048 15.7502C-0.00570213 15.6019 -0.00936092 15.4473 0.020592 15.2974L2.08726 4.96412Z" fill="#454545"/>
<path d="M2.06667 18.6V28.9333H0V31H31V28.9333H28.9333V18.6H24.8V22.7333H6.2V18.6H2.06667Z" fill="#454545"/>
<path d="M8.26671 18.6H22.7334V20.6666H8.26671V18.6Z" fill="#454545"/>
</svg>
