<svg width="31" height="31" viewBox="0 0 31 31" fill="none" xmlns="http://www.w3.org/2000/svg">
<path d="M9.04166 14.2083H11.625V16.7917H9.04166V14.2083ZM9.04166 19.375H11.625V21.9583H9.04166V19.375ZM14.2083 14.2083H16.7917V16.7917H14.2083V14.2083ZM14.2083 19.375H16.7917V21.9583H14.2083V19.375ZM19.375 14.2083H21.9583V16.7917H19.375V14.2083ZM19.375 19.375H21.9583V21.9583H19.375V19.375Z" fill="#454545"/>
<path d="M6.45833 28.4167H24.5417C25.9664 28.4167 27.125 27.258 27.125 25.8333V7.75C27.125 6.32529 25.9664 5.16666 24.5417 5.16666H21.9583V2.58333H19.375V5.16666H11.625V2.58333H9.04167V5.16666H6.45833C5.03362 5.16666 3.875 6.32529 3.875 7.75V25.8333C3.875 27.258 5.03362 28.4167 6.45833 28.4167ZM24.5417 10.3333L24.543 25.8333H6.45833V10.3333H24.5417Z" fill="#454545"/>
</svg>
