<svg width="33" height="27" viewBox="0 0 33 27" fill="none" xmlns="http://www.w3.org/2000/svg">
<path fill-rule="evenodd" clip-rule="evenodd" d="M33 24.7812C33 24.2757 32.8551 23.7908 32.5973 23.4333C32.3394 23.0758 31.9897 22.875 31.625 22.875H23.375C23.0103 22.875 22.6606 23.0758 22.4027 23.4333C22.1449 23.7908 22 24.2757 22 24.7812C22 25.2868 22.1449 25.7717 22.4027 26.1292C22.6606 26.4867 23.0103 26.6875 23.375 26.6875H31.625C31.9897 26.6875 32.3394 26.4867 32.5973 26.1292C32.8551 25.7717 33 25.2868 33 24.7812ZM33 13.3438C33 12.8382 32.8551 12.3533 32.5973 11.9958C32.3394 11.6383 31.9897 11.4375 31.625 11.4375H12.375C12.0103 11.4375 11.6606 11.6383 11.4027 11.9958C11.1449 12.3533 11 12.8382 11 13.3438C11 13.8493 11.1449 14.3342 11.4027 14.6917C11.6606 15.0492 12.0103 15.25 12.375 15.25H31.625C31.9897 15.25 32.3394 15.0492 32.5973 14.6917C32.8551 14.3342 33 13.8493 33 13.3438ZM33 1.90625C33 1.40068 32.8551 0.915819 32.5973 0.558328C32.3394 0.200837 31.9897 0 31.625 0H1.375C1.01033 0 0.660591 0.200837 0.402728 0.558328C0.144866 0.915819 0 1.40068 0 1.90625C0 2.41182 0.144866 2.89668 0.402728 3.25417C0.660591 3.61166 1.01033 3.8125 1.375 3.8125H31.625C31.9897 3.8125 32.3394 3.61166 32.5973 3.25417C32.8551 2.89668 33 2.41182 33 1.90625Z" fill="#454545"/>
</svg>
