<svg width="42" height="42" viewBox="0 0 42 42" fill="none" xmlns="http://www.w3.org/2000/svg">
<path d="M21 5.25C29.6625 5.25 36.75 12.3375 36.75 21C36.75 29.6625 29.6625 36.75 21 36.75C12.3375 36.75 5.25 29.6625 5.25 21C5.25 12.3375 12.3375 5.25 21 5.25ZM21 2.625C10.8938 2.625 2.625 10.8938 2.625 21C2.625 31.1062 10.8938 39.375 21 39.375C31.1062 39.375 39.375 31.1062 39.375 21C39.375 10.8938 31.1062 2.625 21 2.625Z" fill="black"/>
<path d="M31.5 19.6875H22.3125V10.5H19.6875V19.6875H10.5V22.3125H19.6875V31.5H22.3125V22.3125H31.5V19.6875Z" fill="black"/>
</svg>
