<svg width="37" height="41" viewBox="0 0 37 41" fill="none" xmlns="http://www.w3.org/2000/svg">
<path d="M6.25 40.9166H32.7917C33.8746 40.9166 34.9132 40.4864 35.679 39.7207C36.4448 38.9549 36.875 37.9163 36.875 36.8333V4.16665C36.875 3.08368 36.4448 2.04507 35.679 1.27929C34.9132 0.51352 33.8746 0.083313 32.7917 0.083313H4.20833C3.12537 0.083313 2.08675 0.51352 1.32098 1.27929C0.555207 2.04507 0.125 3.08368 0.125 4.16665V36.8333C0.125 37.9163 0.555207 38.9549 1.32098 39.7207C2.08675 40.4864 3.12537 40.9166 4.20833 40.9166H6.25ZM18.5 6.20627C21.8626 6.20627 24.625 8.96456 24.625 12.3313C24.625 15.6959 21.8626 18.4583 18.5 18.4583C15.1374 18.4583 12.375 15.6959 12.375 12.3313C12.375 8.96456 15.1374 6.20627 18.5 6.20627ZM6.25 31.2187C6.25 26.6883 11.7727 22.0312 18.5 22.0312C25.2273 22.0312 30.75 26.6883 30.75 31.2187V32.75H6.25V31.2187Z" fill="#454545"/>
</svg>
