<svg width="39" height="53" viewBox="0 0 39 53" fill="none" xmlns="http://www.w3.org/2000/svg">
<path d="M16.4333 1.19078L1.93333 14.6708C0.725 15.8091 0 17.5764 0 19.4636V46.4236C0 49.7187 2.175 52.4147 4.83333 52.4147H33.8333C36.4917 52.4147 38.6667 49.7187 38.6667 46.4236V19.4636C38.6667 17.5764 37.9417 15.8091 36.7333 14.6708L22.2333 1.19078C21.3951 0.417588 20.3782 0 19.3333 0C18.2885 0 17.2715 0.417588 16.4333 1.19078ZM20.5417 26.9525C20.5417 29.4388 18.9225 31.4458 16.9167 31.4458V41.9303C16.9167 42.769 16.385 43.428 15.7083 43.428C15.0317 43.428 14.5 42.769 14.5 41.9303V31.4458C12.4942 31.4458 10.875 29.4388 10.875 26.9525V19.4636C10.875 18.6249 11.4067 17.9659 12.0833 17.9659C12.76 17.9659 13.2917 18.6249 13.2917 19.4636V26.9525H14.5V19.4636C14.5 18.6249 15.0317 17.9659 15.7083 17.9659C16.385 17.9659 16.9167 18.6249 16.9167 19.4636V26.9525H18.125V19.4636C18.125 18.6249 18.6567 17.9659 19.3333 17.9659C20.01 17.9659 20.5417 18.6249 20.5417 19.4636V26.9525ZM25.375 43.428C24.6983 43.428 24.1667 42.769 24.1667 41.9303V32.9436H22.9583C22.2817 32.9436 21.75 32.2846 21.75 31.4458V23.957C21.75 21.3209 23.1275 19.0742 25.0367 18.2954C25.7858 17.9659 26.5833 18.7147 26.5833 19.7332V41.9303C26.5833 42.769 26.0517 43.428 25.375 43.428Z" fill="#454545"/>
</svg>
