<svg width="42" height="41" viewBox="0 0 42 41" fill="none" xmlns="http://www.w3.org/2000/svg">
<path d="M40.4703 9.7647L21.4309 0.771544C21.2472 0.685801 21.0465 0.642506 20.8437 0.644867C20.641 0.647228 20.4414 0.695185 20.2597 0.785183C20.078 0.875181 19.9189 1.00491 19.7942 1.16477C19.6694 1.32462 19.5823 1.51049 19.5391 1.70861C19.5347 1.72329 18.0116 8.80267 15.7498 15.86C14.9787 18.279 14.115 20.6702 13.2132 22.7705L15.6587 23.9249C18.5962 17.107 20.9227 7.69523 21.7981 3.93083L38.3465 11.7372C37.8383 13.9595 36.5355 19.4085 34.7921 24.8488C33.6656 28.3738 32.3466 31.8944 30.9954 34.4426C29.6882 37.0717 28.1196 38.3642 27.7685 38.1909C25.6829 38.235 24.2171 36.3373 23.2301 33.9051C22.815 32.835 22.4921 31.7314 22.2651 30.6063C22.0771 29.6986 22.0199 29.1287 22.0155 29.1287C21.9921 28.8991 21.9093 28.6795 21.7754 28.4916C21.6415 28.3036 21.4611 28.1537 21.2517 28.0565L2.2167 19.0678C1.99983 18.9654 1.75973 18.9224 1.52082 18.9431C1.28192 18.9637 1.05275 19.0473 0.856641 19.1853C0.661672 19.3245 0.507237 19.5131 0.409162 19.7317C0.311088 19.9503 0.272901 20.1911 0.298516 20.4293C0.310266 20.4969 0.584923 23.1465 1.68942 25.918C2.45611 27.8568 3.75595 30.057 5.86948 31.1688L24.8986 40.1722L24.9074 40.1546C25.7329 40.5879 26.6699 40.8699 27.7671 40.8831C30.4064 40.7113 31.8458 38.4332 33.3748 35.7058C37.781 27.3486 41.1885 11.3245 41.215 11.2658C41.2802 10.9691 41.2424 10.6591 41.1078 10.3868C40.9733 10.1144 40.75 9.89608 40.4747 9.76764L40.4703 9.7647Z" fill="#454545"/>
</svg>
