<svg width="39" height="39" viewBox="0 0 39 39" fill="none" xmlns="http://www.w3.org/2000/svg">
<path d="M36.5 34.375H34.375V4.625C34.375 3.45625 33.4188 2.5 32.25 2.5H23.75C23.75 1.33125 22.7938 0.375 21.625 0.375H6.75C5.58125 0.375 4.625 1.33125 4.625 2.5V34.375H2.5C1.33125 34.375 0.375 35.3312 0.375 36.5C0.375 37.6688 1.33125 38.625 2.5 38.625H21.625C22.7938 38.625 23.75 37.6688 23.75 36.5V6.75H30.125V36.5C30.125 37.6688 31.0812 38.625 32.25 38.625H36.5C37.6688 38.625 38.625 37.6688 38.625 36.5C38.625 35.3312 37.6688 34.375 36.5 34.375ZM19.5 21.625H15.25V17.375H19.5V21.625Z" fill="#454545"/>
</svg>
