<svg width="24" height="24" viewBox="0 0 24 24" fill="none" xmlns="http://www.w3.org/2000/svg">
<path d="M22.5 0H0.9375C0.418945 0 0 0.418945 0 0.9375V22.5C0 23.0186 0.418945 23.4375 0.9375 23.4375H22.5C23.0186 23.4375 23.4375 23.0186 23.4375 22.5V0.9375C23.4375 0.418945 23.0186 0 22.5 0ZM19.793 6.84082H17.9209C16.4531 6.84082 16.1689 7.53809 16.1689 8.56348V10.8223H19.6729L19.2158 14.3584H16.1689V23.4375H12.5156V14.3613H9.45996V10.8223H12.5156V8.21484C12.5156 5.18848 14.3643 3.53906 17.0654 3.53906C18.3604 3.53906 19.4707 3.63574 19.7959 3.67969V6.84082H19.793Z" fill="white"/>
</svg>
