<svg width="30" height="30" viewBox="0 0 30 30" fill="none" xmlns="http://www.w3.org/2000/svg">
<path d="M14.9981 0C10.9209 0 10.4128 0.0196875 8.81719 0.0871875C7.215 0.165937 6.13125 0.414375 5.175 0.785625C4.17418 1.16346 3.26781 1.75501 2.51906 2.51906C1.75288 3.26606 1.161 4.17294 0.785625 5.175C0.414375 6.13125 0.165937 7.215 0.0871875 8.81719C0.015 10.4137 0 10.9209 0 14.9981C0 19.0753 0.0196875 19.5834 0.0871875 21.1791C0.165937 22.7766 0.414375 23.865 0.785625 24.8212C1.16346 25.8221 1.75501 26.7284 2.51906 27.4772C3.26606 28.2434 4.17294 28.8353 5.175 29.2106C6.13125 29.5772 7.21969 29.8303 8.81719 29.9091C10.4137 29.9813 10.9209 29.9963 14.9981 29.9963C19.0753 29.9963 19.5834 29.9766 21.1791 29.9091C22.7766 29.8303 23.865 29.5763 24.8212 29.2106C25.8221 28.8328 26.7284 28.2412 27.4772 27.4772C28.2444 26.731 28.8364 25.8239 29.2106 24.8212C29.5772 23.865 29.8303 22.7766 29.9091 21.1791C29.9813 19.5825 29.9962 19.0753 29.9962 14.9981C29.9962 10.9209 29.9766 10.4128 29.9091 8.81719C29.8303 7.21969 29.5762 6.12563 29.2106 5.175C28.8328 4.17418 28.2412 3.26781 27.4772 2.51906C26.731 1.7519 25.8239 1.15986 24.8212 0.785625C23.865 0.414375 22.7766 0.165937 21.1791 0.0871875C19.5825 0.015 19.0753 0 14.9981 0ZM14.9981 2.7C19.0022 2.7 19.4803 2.71969 21.0628 2.78719C22.5225 2.85563 23.3175 3.09938 23.8453 3.30562C24.4978 3.54649 25.0884 3.92986 25.5741 4.42781C26.0712 4.9114 26.4531 5.50064 26.6916 6.15188C26.8978 6.67969 27.1416 7.47469 27.21 8.93437C27.2775 10.5169 27.2972 10.9959 27.2972 14.9991C27.2972 19.0022 27.2775 19.4813 27.2044 21.0638C27.1256 22.5234 26.8819 23.3184 26.6766 23.8463C26.3925 24.5503 26.0756 25.0425 25.5525 25.575C25.0652 26.0698 24.475 26.4514 23.8237 26.6925C23.3025 26.8988 22.4962 27.1425 21.0309 27.2109C19.44 27.2784 18.9713 27.2981 14.9569 27.2981C10.9425 27.2981 10.4747 27.2784 8.88188 27.2053C7.42219 27.1266 6.61688 26.8828 6.08906 26.6775C5.37656 26.3934 4.88812 26.0766 4.365 25.5534C3.83719 25.0256 3.50156 24.5231 3.24281 23.8247C3.03281 23.3034 2.79281 22.4972 2.715 21.0319C2.66156 19.4597 2.63625 18.9722 2.63625 14.9766C2.63625 10.9828 2.66156 10.4944 2.715 8.9025C2.79281 7.43719 3.03281 6.63281 3.24281 6.10969C3.50156 5.39625 3.83813 4.90875 4.365 4.38094C4.88719 3.85875 5.37656 3.52125 6.08906 3.25688C6.61688 3.05156 7.4025 2.80781 8.86781 2.73469C10.4588 2.6775 10.9275 2.65688 14.9362 2.65688L14.9981 2.7ZM14.9981 7.30031C13.9869 7.29994 12.9855 7.49885 12.0511 7.88566C11.1168 8.27248 10.2679 8.83962 9.5528 9.55468C8.83774 10.2697 8.2706 11.1187 7.88379 12.053C7.49697 12.9874 7.29807 13.9888 7.29844 15C7.29807 16.0112 7.49697 17.0126 7.88379 17.947C8.2706 18.8813 8.83774 19.7303 9.5528 20.4453C10.2679 21.1604 11.1168 21.7275 12.0511 22.1143C12.9855 22.5012 13.9869 22.7001 14.9981 22.6997C16.0094 22.7001 17.0108 22.5012 17.9451 22.1143C18.8794 21.7275 19.7284 21.1604 20.4435 20.4453C21.1585 19.7303 21.7256 18.8813 22.1125 17.947C22.4993 17.0126 22.6982 16.0112 22.6978 15C22.6982 13.9888 22.4993 12.9874 22.1125 12.053C21.7256 11.1187 21.1585 10.2697 20.4435 9.55468C19.7284 8.83962 18.8794 8.27248 17.9451 7.88566C17.0108 7.49885 16.0094 7.29994 14.9981 7.30031ZM14.9981 19.9997C12.2344 19.9997 9.99844 17.7638 9.99844 15C9.99844 12.2362 12.2344 10.0003 14.9981 10.0003C17.7619 10.0003 19.9978 12.2362 19.9978 15C19.9978 17.7638 17.7619 19.9997 14.9981 19.9997ZM24.8081 6.99281C24.8076 7.47062 24.6175 7.92869 24.2794 8.26638C23.9414 8.60407 23.4831 8.79375 23.0053 8.79375C22.7691 8.79375 22.5351 8.74722 22.3168 8.65681C22.0986 8.56639 21.9002 8.43388 21.7332 8.26682C21.5661 8.09976 21.4336 7.90143 21.3432 7.68316C21.2528 7.46489 21.2062 7.23094 21.2062 6.99469C21.2062 6.75843 21.2528 6.52449 21.3432 6.30622C21.4336 6.08794 21.5661 5.88962 21.7332 5.72256C21.9002 5.5555 22.0986 5.42298 22.3168 5.33257C22.5351 5.24216 22.7691 5.19562 23.0053 5.19562C23.9963 5.19562 24.8081 6.00187 24.8081 6.99281Z" fill="white"/>
</svg>
