<svg width="32" height="31" viewBox="0 0 32 31" fill="none" xmlns="http://www.w3.org/2000/svg">
<path d="M25.817 12.391C25.9299 12.3871 26.0425 12.406 26.148 12.4465C26.2535 12.4871 26.3498 12.5484 26.431 12.6269C26.5123 12.7055 26.577 12.7996 26.6211 12.9036C26.6653 13.0076 26.688 13.1195 26.688 13.2325C26.688 13.3455 26.6653 13.4574 26.6211 13.5614C26.577 13.6654 26.5123 13.7595 26.431 13.8381C26.3498 13.9166 26.2535 13.9779 26.148 14.0185C26.0425 14.059 25.9299 14.0779 25.817 14.074H23.478V15.574H25.817C25.9306 15.5684 26.0442 15.586 26.1508 15.6257C26.2574 15.6654 26.3549 15.7263 26.4373 15.8047C26.5197 15.8832 26.5852 15.9775 26.6301 16.0821C26.6749 16.1867 26.698 16.2992 26.698 16.413C26.698 16.5268 26.6749 16.6393 26.6301 16.7439C26.5852 16.8485 26.5197 16.9428 26.4373 17.0213C26.3549 17.0997 26.2574 17.1606 26.1508 17.2003C26.0442 17.24 25.9306 17.2575 25.817 17.252H22.64C22.4179 17.2512 22.2052 17.1625 22.0483 17.0053C21.8915 16.848 21.8033 16.6351 21.803 16.413V10.053C21.803 9.59 22.178 9.21 22.64 9.21H25.823C26.0389 9.22116 26.2423 9.31496 26.391 9.47197C26.5396 9.62898 26.6222 9.83716 26.6215 10.0534C26.6209 10.2696 26.5371 10.4773 26.3875 10.6334C26.2379 10.7895 26.034 10.8821 25.818 10.892H23.479V12.392L25.817 12.391ZM20.683 16.412C20.6812 16.6347 20.5915 16.8477 20.4334 17.0046C20.2753 17.1616 20.0617 17.2497 19.839 17.25C19.7071 17.2513 19.5768 17.2219 19.4582 17.1641C19.3397 17.1063 19.2362 17.0217 19.156 16.917L15.901 12.49V16.411C15.901 16.6335 15.8126 16.8469 15.6553 17.0043C15.4979 17.1616 15.2845 17.25 15.062 17.25C14.8395 17.25 14.6261 17.1616 14.4687 17.0043C14.3114 16.8469 14.223 16.6335 14.223 16.411V10.051C14.223 9.692 14.458 9.37 14.796 9.255C14.8795 9.22552 14.9675 9.21096 15.056 9.212C15.316 9.212 15.556 9.353 15.717 9.551L18.998 13.988V10.051C18.998 9.588 19.373 9.208 19.837 9.208C20.301 9.208 20.681 9.588 20.681 10.051L20.683 16.412ZM13.027 16.412C13.0259 16.6351 12.9365 16.8486 12.7783 17.0059C12.6201 17.1631 12.4061 17.2513 12.183 17.251C11.9616 17.2492 11.7499 17.16 11.5939 17.0029C11.4379 16.8457 11.3503 16.6334 11.35 16.412V10.052C11.35 9.589 11.725 9.209 12.189 9.209C12.652 9.209 13.028 9.589 13.028 10.052L13.027 16.412ZM9.74 17.251H6.557C6.33418 17.2505 6.12056 17.1621 5.96254 17.005C5.80451 16.8479 5.71484 16.6348 5.713 16.412V10.052C5.713 9.589 6.093 9.209 6.557 9.209C7.021 9.209 7.396 9.589 7.396 10.052V15.573H9.74C9.96252 15.573 10.1759 15.6614 10.3333 15.8187C10.4906 15.9761 10.579 16.1895 10.579 16.412C10.579 16.6345 10.4906 16.8479 10.3333 17.0053C10.1759 17.1626 9.96252 17.251 9.74 17.251ZM32 12.989C32 5.828 24.817 0 16 0C7.183 0 0 5.828 0 12.989C0 19.406 5.693 24.781 13.38 25.802C13.901 25.911 14.609 26.146 14.792 26.589C14.953 26.989 14.896 27.609 14.844 28.032L14.625 29.391C14.562 29.792 14.302 30.97 16.021 30.251C17.745 29.532 25.245 24.814 28.604 20.948C30.901 18.433 32 15.849 32 12.989Z" fill="white"/>
</svg>
