<svg width="30" height="30" viewBox="0 0 30 30" fill="none" xmlns="http://www.w3.org/2000/svg">
<path d="M24.5625 4.6875C22.0313 2.34375 18.7031 0.9375 15 0.9375C11.2969 0.9375 7.96875 2.34375 5.4375 4.6875H24.5625Z" fill="#ED4C5C"/>
<path d="M5.4375 25.3125C7.96875 27.6562 11.2969 29.0625 15 29.0625C18.7031 29.0625 22.0313 27.6562 24.5625 25.3125H5.4375Z" fill="#ED4C5C"/>
<path d="M0.9375 15C0.9375 17.0156 1.35938 18.8906 2.10938 20.625H27.8906C28.6406 18.8906 29.0625 17.0156 29.0625 15C29.0625 12.9844 28.6406 11.1094 27.8906 9.375H2.10938C1.35938 11.1094 0.9375 12.9844 0.9375 15Z" fill="#2A5F9E"/>
<path d="M5.4375 25.3125H24.5156C25.9219 24 27.0938 22.4062 27.8438 20.625H2.0625C2.90625 22.4062 4.03125 24 5.4375 25.3125Z" fill="#F9F9F9"/>
<path d="M24.5625 4.6875H5.4375C4.03125 6 2.85938 7.59375 2.10938 9.375H27.8906C27.0938 7.59375 25.9688 6 24.5625 4.6875Z" fill="#F9F9F9"/>
</svg>
