<svg width="34" height="34" viewBox="0 0 34 34" fill="none" xmlns="http://www.w3.org/2000/svg">
<path d="M32.2999 24.6501V9.35005C32.2999 7.93905 31.1609 6.80005 29.7499 6.80005H5.93293C4.52193 6.80005 3.38293 7.93905 3.38293 9.35005V24.6501C3.38293 26.0611 4.52193 27.2001 5.93293 27.2001H29.7499C31.1609 27.2001 32.2999 26.0611 32.2999 24.6501ZM30.0729 9.16305C30.6339 9.72405 30.3279 10.302 30.0219 10.591L23.1199 16.915L29.7499 23.8171C29.9539 24.0551 30.0899 24.4291 29.8519 24.6841C29.6309 24.9561 29.1209 24.9391 28.8999 24.7691L21.4709 18.4281L17.8329 21.7431L14.2119 18.4281L6.78293 24.7691C6.56193 24.9391 6.05193 24.9561 5.83093 24.6841C5.59293 24.4291 5.72893 24.0551 5.93293 23.8171L12.5629 16.915L5.66093 10.591C5.35493 10.302 5.04893 9.72405 5.60993 9.16305C6.17093 8.60205 6.74893 8.87405 7.22493 9.28205L17.8329 17.85L28.4579 9.28205C28.9339 8.87405 29.5119 8.60205 30.0729 9.16305Z" fill="#454545"/>
</svg>
