<svg width="30" height="27" viewBox="0 0 30 27" fill="none" xmlns="http://www.w3.org/2000/svg">
<path d="M28.6202 19.6857C28.7421 18.9422 28.7421 18.1828 28.6202 17.4393L29.8297 16.6535C29.9703 16.5639 30.0313 16.3793 29.9844 16.2053C29.6703 15.0662 29.1312 14.0326 28.428 13.1783C28.3202 13.0465 28.1467 13.0148 28.0061 13.1045L26.7966 13.8902C26.2856 13.3998 25.6996 13.0201 25.0667 12.767V11.1955C25.0667 11.0162 24.9542 10.858 24.7995 10.8211C23.7541 10.5574 22.6899 10.568 21.696 10.8211C21.5413 10.858 21.4288 11.0162 21.4288 11.1955V12.767C20.7959 13.0201 20.2099 13.3998 19.699 13.8902L18.4894 13.1045C18.3535 13.0148 18.1754 13.0465 18.0675 13.1783C17.3643 14.0326 16.8252 15.0662 16.5111 16.2053C16.4642 16.3793 16.5299 16.5639 16.6658 16.6535L17.8753 17.4393C17.7534 18.1828 17.7534 18.9422 17.8753 19.6857L16.6658 20.4715C16.5252 20.5611 16.4642 20.7457 16.5111 20.9197C16.8252 22.0588 17.3643 23.0871 18.0675 23.9467C18.1754 24.0785 18.3488 24.1102 18.4894 24.0205L19.699 23.2348C20.2099 23.7252 20.7959 24.1049 21.4288 24.358V25.9295C21.4288 26.1088 21.5413 26.267 21.696 26.3039C22.7415 26.5676 23.8056 26.557 24.7995 26.3039C24.9542 26.267 25.0667 26.1088 25.0667 25.9295V24.358C25.6996 24.1049 26.2856 23.7252 26.7966 23.2348L28.0061 24.0205C28.142 24.1102 28.3202 24.0785 28.428 23.9467C29.1312 23.0924 29.6703 22.0588 29.9844 20.9197C30.0313 20.7457 29.9657 20.5611 29.8297 20.4715L28.6202 19.6857ZM23.2525 21.1201C21.9961 21.1201 20.9788 19.9705 20.9788 18.5625C20.9788 17.1545 22.0008 16.0049 23.2525 16.0049C24.5041 16.0049 25.5261 17.1545 25.5261 18.5625C25.5261 19.9705 24.5088 21.1201 23.2525 21.1201ZM10.5011 13.5C13.8155 13.5 16.5017 10.4783 16.5017 6.75C16.5017 3.02168 13.8155 0 10.5011 0C7.1867 0 4.50047 3.02168 4.50047 6.75C4.50047 10.4783 7.1867 13.5 10.5011 13.5ZM19.9334 25.4443C19.8255 25.3811 19.7177 25.3072 19.6146 25.2387L19.2442 25.4813C18.9629 25.6605 18.6442 25.7607 18.3254 25.7607C17.8144 25.7607 17.3221 25.5182 16.9705 25.0963C16.1126 24.0521 15.4563 22.7812 15.086 21.426C14.8281 20.4926 15.175 19.5064 15.9251 19.016L16.2955 18.7734C16.2908 18.6363 16.2908 18.4992 16.2955 18.3621L15.9251 18.1195C15.175 17.6344 14.8281 16.643 15.086 15.7096C15.1282 15.5566 15.1891 15.4037 15.236 15.2508C15.0578 15.235 14.8844 15.1875 14.7016 15.1875H13.9187C12.8779 15.7254 11.72 16.0312 10.5011 16.0312C9.28223 16.0312 8.12898 15.7254 7.08356 15.1875H6.30066C2.82217 15.1875 0 18.3621 0 22.275V24.4688C0 25.8662 1.00792 27 2.25024 27H18.752C19.2255 27 19.6661 26.8312 20.0271 26.5518C19.9709 26.3514 19.9334 26.1457 19.9334 25.9295V25.4443Z" fill="#454545"/>
</svg>
