<svg width="49" height="53" viewBox="0 0 49 53" fill="none" xmlns="http://www.w3.org/2000/svg">
<path d="M8.75 52.75H42.875C44.2674 52.75 45.6027 52.1969 46.5873 51.2123C47.5719 50.2277 48.125 48.8924 48.125 47.5V5.5C48.125 4.10761 47.5719 2.77226 46.5873 1.78769C45.6027 0.803123 44.2674 0.25 42.875 0.25H6.125C4.73261 0.25 3.39726 0.803123 2.41269 1.78769C1.42812 2.77226 0.875 4.10761 0.875 5.5V47.5C0.875 48.8924 1.42812 50.2277 2.41269 51.2123C3.39726 52.1969 4.73261 52.75 6.125 52.75H8.75ZM24.5 8.12238C28.8234 8.12238 32.375 11.6687 32.375 15.9974C32.375 20.3234 28.8234 23.875 24.5 23.875C20.1766 23.875 16.625 20.3234 16.625 15.9974C16.625 11.6687 20.1766 8.12238 24.5 8.12238ZM8.75 40.2812C8.75 34.4564 15.8506 28.4688 24.5 28.4688C33.1494 28.4688 40.25 34.4564 40.25 40.2812V42.25H8.75V40.2812Z" fill="#F9F9F9"/>
</svg>
