<svg width="83" height="83" viewBox="0 0 83 83" fill="none" xmlns="http://www.w3.org/2000/svg">
<path d="M41.5 6.91675C31.9654 6.91675 24.2084 14.6738 24.2084 24.2084V34.5834H20.75C18.9156 34.5834 17.1563 35.3121 15.8592 36.6093C14.5621 37.9064 13.8334 39.6657 13.8334 41.5001V69.1668C13.8334 71.0012 14.5621 72.7604 15.8592 74.0576C17.1563 75.3547 18.9156 76.0834 20.75 76.0834H62.25C64.0845 76.0834 65.8437 75.3547 67.1409 74.0576C68.438 72.7604 69.1667 71.0012 69.1667 69.1668V41.5001C69.1667 39.6657 68.438 37.9064 67.1409 36.6093C65.8437 35.3121 64.0845 34.5834 62.25 34.5834H58.7917V24.2084C58.7917 14.6738 51.0347 6.91675 41.5 6.91675ZM31.125 24.2084C31.125 18.4883 35.78 13.8334 41.5 13.8334C47.2201 13.8334 51.875 18.4883 51.875 24.2084V34.5834H31.125V24.2084ZM44.9584 61.2921V69.1668H38.0417V61.2921C36.8326 60.5997 35.8618 59.5572 35.2572 58.3019C34.6525 57.0466 34.4426 55.6376 34.6549 54.2605C34.8672 52.8835 35.4919 51.6032 36.4466 50.5883C37.4013 49.5735 38.6411 48.8718 40.0026 48.5758C41.0139 48.3522 42.0624 48.3585 43.071 48.5941C44.0795 48.8297 45.0223 49.2887 45.8298 49.9373C46.6373 50.5858 47.289 51.4073 47.7367 52.3413C48.1844 53.2752 48.4168 54.2977 48.4167 55.3334C48.4147 56.5429 48.094 57.7306 47.4869 58.7767C46.8797 59.8228 46.0076 60.6904 44.9584 61.2921Z" fill="#454545"/>
</svg>
