<svg width="70" height="36" viewBox="0 0 70 36" fill="none" xmlns="http://www.w3.org/2000/svg">
<path d="M56.5 16.5H67V19.5H56.5V16.5ZM58 22.5H67V25.5H58V22.5ZM55 10.5H67V13.5H55V10.5ZM40 28.5H55V27C55 22.8645 51.6355 19.5 47.5 19.5H44.5C40.3645 19.5 37 22.8645 37 27V28.5H40ZM46 18C48.9925 18 51.25 15.7425 51.25 12.75C51.25 9.7575 48.9925 7.5 46 7.5C43.0075 7.5 40.75 9.7575 40.75 12.75C40.75 15.7425 43.0075 18 46 18Z" fill="#F4F4F4"/>
<path d="M14.5 9.33333C14.7868 9.33333 15.0671 9.41805 15.3056 9.57677C15.544 9.73548 15.7299 9.96108 15.8396 10.225C15.9494 10.489 15.9781 10.7794 15.9221 11.0596C15.8662 11.3398 15.7281 11.5971 15.5253 11.7992C15.3225 12.0012 15.0642 12.1387 14.7829 12.1945C14.5016 12.2502 14.2101 12.2216 13.9451 12.1123C13.6802 12.0029 13.4537 11.8178 13.2944 11.5803C13.135 11.3427 13.05 11.0635 13.05 10.7778C13.05 10.3947 13.2028 10.0273 13.4747 9.7564C13.7466 9.48552 14.1154 9.33333 14.5 9.33333ZM5.8 20.8889H23.2V25.2222H5.8V20.8889ZM26.1 9.33333H20.3V5H8.7V9.33333H2.9C2.13087 9.33333 1.39325 9.6377 0.84939 10.1795C0.305535 10.7212 0 11.456 0 12.2222V28.1111C0 28.8773 0.305535 29.6121 0.84939 30.1539C1.39325 30.6956 2.13087 31 2.9 31H26.1C26.8691 31 27.6068 30.6956 28.1506 30.1539C28.6945 29.6121 29 28.8773 29 28.1111V12.2222C29 11.456 28.6945 10.7212 28.1506 10.1795C27.6068 9.6377 26.8691 9.33333 26.1 9.33333ZM11.6 7.88889H17.4V15.1111H11.6V7.88889ZM26.1 28.1111H2.9V15.1111H8.7C8.7 15.8773 9.00554 16.6121 9.54939 17.1539C10.0932 17.6956 10.8309 18 11.6 18H17.4C18.1691 18 18.9068 17.6956 19.4506 17.1539C19.9945 16.6121 20.3 15.8773 20.3 15.1111H26.1V28.1111Z" fill="#F4F4F4"/>
</svg>
