<svg width="184" height="83" viewBox="0 0 184 83" fill="none" xmlns="http://www.w3.org/2000/svg">
<path d="M142.5 6.91675C132.965 6.91675 125.208 14.6738 125.208 24.2084V34.5834H121.75C119.916 34.5834 118.156 35.3121 116.859 36.6093C115.562 37.9064 114.833 39.6657 114.833 41.5001V69.1668C114.833 71.0012 115.562 72.7604 116.859 74.0576C118.156 75.3547 119.916 76.0834 121.75 76.0834H163.25C165.084 76.0834 166.844 75.3547 168.141 74.0576C169.438 72.7604 170.167 71.0012 170.167 69.1668V41.5001C170.167 39.6657 169.438 37.9064 168.141 36.6093C166.844 35.3121 165.084 34.5834 163.25 34.5834H159.792V24.2084C159.792 14.6738 152.035 6.91675 142.5 6.91675ZM132.125 24.2084C132.125 18.4883 136.78 13.8334 142.5 13.8334C148.22 13.8334 152.875 18.4883 152.875 24.2084V34.5834H132.125V24.2084ZM145.958 61.2921V69.1668H139.042V61.2921C137.833 60.5997 136.862 59.5572 136.257 58.3019C135.653 57.0466 135.443 55.6376 135.655 54.2605C135.867 52.8835 136.492 51.6032 137.447 50.5883C138.401 49.5735 139.641 48.8718 141.003 48.5758C142.014 48.3522 143.062 48.3585 144.071 48.5941C145.08 48.8297 146.022 49.2887 146.83 49.9373C147.637 50.5858 148.289 51.4073 148.737 52.3413C149.184 53.2752 149.417 54.2977 149.417 55.3334C149.415 56.5429 149.094 57.7306 148.487 58.7767C147.88 59.8228 147.008 60.6904 145.958 61.2921Z" fill="#454545"/>
<path d="M101 70.125V16.875C101 11.9642 97.0218 8 92.0935 8H8.90653C3.97825 8 0 11.9642 0 16.875V70.125C0 75.0358 3.97825 79 8.90653 79H92.0935C97.0218 79 101 75.0358 101 70.125ZM93.2216 16.2242C95.1811 18.1767 94.1123 20.1883 93.0435 21.1942L68.9365 43.2042L92.0935 67.2258C92.806 68.0542 93.281 69.3558 92.4497 70.2433C91.6778 71.19 89.8965 71.1308 89.1246 70.5392L63.177 48.47L50.4703 60.0075L37.823 48.47L11.8754 70.5392C11.1035 71.1308 9.32216 71.19 8.55026 70.2433C7.71899 69.3558 8.194 68.0542 8.90653 67.2258L32.0635 43.2042L7.9565 21.1942C6.88771 20.1883 5.81893 18.1767 7.77837 16.2242C9.7378 14.2717 11.7566 15.2183 13.4192 16.6383L50.4703 46.4583L87.5808 16.6383C89.2434 15.2183 91.2622 14.2717 93.2216 16.2242Z" fill="#454545"/>
</svg>
