<svg width="33" height="30" viewBox="0 0 33 30" fill="none" xmlns="http://www.w3.org/2000/svg">
<path d="M31.4822 21.873C31.6163 21.0469 31.6163 20.2031 31.4822 19.377L32.8127 18.5039C32.9674 18.4043 33.0344 18.1992 32.9829 18.0059C32.6373 16.7402 32.0443 15.5918 31.2708 14.6426C31.1522 14.4961 30.9614 14.4609 30.8067 14.5605L29.4762 15.4336C28.9141 14.8887 28.2695 14.4668 27.5734 14.1855V12.4395C27.5734 12.2402 27.4496 12.0645 27.2794 12.0234C26.1295 11.7305 24.9589 11.7422 23.8656 12.0234C23.6955 12.0645 23.5717 12.2402 23.5717 12.4395V14.1855C22.8755 14.4668 22.2309 14.8887 21.6688 15.4336L20.3384 14.5605C20.1888 14.4609 19.9929 14.4961 19.8743 14.6426C19.1008 15.5918 18.5077 16.7402 18.1622 18.0059C18.1107 18.1992 18.1829 18.4043 18.3324 18.5039L19.6629 19.377C19.5288 20.2031 19.5288 21.0469 19.6629 21.873L18.3324 22.7461C18.1777 22.8457 18.1107 23.0508 18.1622 23.2441C18.5077 24.5098 19.1008 25.6523 19.8743 26.6074C19.9929 26.7539 20.1837 26.7891 20.3384 26.6895L21.6688 25.8164C22.2309 26.3613 22.8755 26.7832 23.5717 27.0645V28.8105C23.5717 29.0098 23.6955 29.1855 23.8656 29.2266C25.0156 29.5195 26.1862 29.5078 27.2794 29.2266C27.4496 29.1855 27.5734 29.0098 27.5734 28.8105V27.0645C28.2695 26.7832 28.9141 26.3613 29.4762 25.8164L30.8067 26.6895C30.9562 26.7891 31.1522 26.7539 31.2708 26.6074C32.0443 25.6582 32.6373 24.5098 32.9829 23.2441C33.0344 23.0508 32.9622 22.8457 32.8127 22.7461L31.4822 21.873ZM25.5777 23.4668C24.1957 23.4668 23.0767 22.1895 23.0767 20.625C23.0767 19.0605 24.2008 17.7832 25.5777 17.7832C26.9546 17.7832 28.0787 19.0605 28.0787 20.625C28.0787 22.1895 26.9597 23.4668 25.5777 23.4668ZM11.5512 15C15.1971 15 18.1519 11.6426 18.1519 7.5C18.1519 3.35742 15.1971 0 11.5512 0C7.90536 0 4.95052 3.35742 4.95052 7.5C4.95052 11.6426 7.90536 15 11.5512 15ZM21.9267 28.2715C21.8081 28.2012 21.6895 28.1191 21.576 28.043L21.1686 28.3125C20.8592 28.5117 20.5086 28.623 20.1579 28.623C19.5958 28.623 19.0544 28.3535 18.6676 27.8848C17.7239 26.7246 17.0019 25.3125 16.5946 23.8066C16.3109 22.7695 16.6925 21.6738 17.5176 21.1289L17.925 20.8594C17.9199 20.707 17.9199 20.5547 17.925 20.4023L17.5176 20.1328C16.6925 19.5938 16.3109 18.4922 16.5946 17.4551C16.641 17.2852 16.708 17.1152 16.7596 16.9453C16.5636 16.9277 16.3728 16.875 16.1717 16.875H15.3105C14.1657 17.4727 12.892 17.8125 11.5512 17.8125C10.2105 17.8125 8.94188 17.4727 7.79192 16.875H6.93073C3.10439 16.875 0 20.4023 0 24.75V27.1875C0 28.7402 1.10871 30 2.47526 30H20.6272C21.148 30 21.6328 29.8125 22.0298 29.502C21.9679 29.2793 21.9267 29.0508 21.9267 28.8105V28.2715Z" fill="#F9F9F9"/>
</svg>
